<svg enable-background="new 0 0 140 140" height="512" viewBox="0 0 140 140" width="512" xmlns="http://www.w3.org/2000/svg"><circle cx="70" cy="70" fill="#45b39c" r="64"/><path d="m68.3035202 133.9570923c.5654297.0147705 1.1275024.0429077 1.6964722.0429077 34.3660889 0 62.3975296-27.0888062 63.9261551-61.0775757l-33.2147293-33.277401c-.0800171-.0800171-.1400146-.1600342-.2199707-.2400513-.0700073-.0699463-.1500244-.1399536-.2300415-.2099609l-.2299805-.2200317-.0100098.0100098c-4.5700073-4.1099854-11.5999756-3.9799805-15.9899902.4199829l-30.2299767 30.2300377c-3.2200317 3.2199707-5.0599976 7.5700073-5.1099854 12.1300049l-.0600586 4.9199829-3.7099609 3.710022-.3300171-.3300171-7.3599854 7.3699951c-.460022.460022-.7600098 1.0100098-.9400024 1.5800171l-.0100098.0099487v.0100098c-.4000244 1.3200073-.0999756 2.8000488.9500122 3.8500366z" opacity=".1"/><path d="m100.4908371 39.4000282c-4.5452881-4.5453491-11.9147339-4.5454102-16.460083 0l-30.2330895 30.2330895c-3.2210083 3.2210083-5.0550537 7.5736694-5.1105347 12.128418l-.0599976 4.9202881-9.7096558 9.7096558c1.5273438 1.5272827 3.0546265 3.0545044 4.5819092 4.5818481l9.7095947-9.7095947 4.9202881-.0599976c4.5548706-.0554199 8.9074669-1.8895264 12.1284752-5.1105347l30.2330933-30.2330894c4.5453492-4.5453492 4.5453492-11.914734.0000001-16.4600831z" fill="#ebf0f3"/><path d="m68.28746 37.933292h1.498853v65.841354h-1.498853z" fill="#e56353" transform="matrix(.707 .707 -.707 .707 70.322 -28.064)"/><path d="m44.5946159 90.0672607-7.3663216 7.3663177c-1.5042191 1.5042191-1.5042191 3.9430084 0 5.4472198 1.5042152 1.5042191 3.9430504 1.5042648 5.4472656.0000534l7.3663254-7.3663254z" fill="#fcd462"/><g fill="#4d5c7d"><path d="m85.740761 44.695225h4.323585v.751928h-4.323585z" transform="matrix(.707 .707 -.707 .707 57.616 -48.955)"/><path d="m85.304352 47.660595h2.228523v.751928h-2.228523z" transform="matrix(.707 .707 -.707 .707 59.278 -47.038)"/><path d="m80.924675 49.511311h4.323585v.751928h-4.323585z" transform="matrix(.707 .707 -.707 .707 59.611 -44.139)"/><path d="m80.488274 52.476677h2.228523v.751928h-2.228523z" transform="matrix(.707 .707 -.707 .707 61.273 -42.222)"/><path d="m76.108589 54.327393h4.323585v.751928h-4.323585z" transform="matrix(.707 .707 -.707 .707 61.606 -39.323)"/><path d="m75.672188 57.292759h2.228523v.751928h-2.228523z" transform="matrix(.707 .707 -.707 .707 63.268 -37.405)"/><path d="m71.292511 59.143475h4.323585v.751928h-4.323585z" transform="matrix(.707 .707 -.707 .707 63.601 -34.507)"/><path d="m70.856102 62.108845h2.228523v.751928h-2.228523z" transform="matrix(.707 .707 -.707 .707 65.263 -32.589)"/><path d="m66.476425 63.95956h4.323585v.751928h-4.323585z" transform="matrix(.707 .707 -.707 .707 65.596 -29.691)"/><path d="m66.040024 66.924927h2.228523v.751928h-2.228523z" transform="matrix(.707 .707 -.707 .707 67.258 -27.773)"/><path d="m61.660339 68.775642h4.323585v.751928h-4.323585z" transform="matrix(.707 .707 -.707 .707 67.591 -24.875)"/><path d="m61.223938 71.741013h2.228523v.751928h-2.228523z" transform="matrix(.707 .707 -.707 .707 69.253 -22.957)"/><path d="m56.844257 73.591728h4.323585v.751928h-4.323585z" transform="matrix(.707 .707 -.707 .707 69.586 -20.059)"/><path d="m56.407852 76.557091h2.228523v.751928h-2.228523z" transform="matrix(.707 .707 -.707 .707 71.248 -18.141)"/><path d="m52.028175 78.407806h4.323585v.751928h-4.323585z" transform="matrix(.707 .707 -.707 .707 71.58 -15.243)"/><path d="m92.657875 51.612343h4.323585v.751928h-4.323585z" transform="matrix(-.707 -.707 .707 -.707 125.106 155.797)"/><path d="m90.740036 53.096275h2.228523v.751928h-2.228523z" transform="matrix(-.707 -.707 .707 -.707 118.995 156.234)"/><path d="m87.841789 56.428425h4.323585v.751928h-4.323585z" transform="matrix(-.707 -.707 .707 -.707 113.479 160.613)"/><path d="m85.92395 57.912361h2.228523v.751928h-2.228523z" transform="matrix(-.707 -.707 .707 -.707 107.367 161.05)"/><path d="m83.025703 61.244507h4.323585v.751928h-4.323585z" transform="matrix(-.707 -.707 .707 -.707 101.852 165.429)"/><path d="m81.107872 62.728443h2.228523v.751928h-2.228523z" transform="matrix(-.707 -.707 .707 -.707 95.74 165.866)"/><path d="m78.209625 66.060593h4.323585v.751928h-4.323585z" transform="matrix(-.707 -.707 .707 -.707 90.225 170.245)"/><path d="m76.291786 67.544525h2.228523v.751928h-2.228523z" transform="matrix(-.707 -.707 .707 -.707 84.113 170.682)"/><path d="m73.393539 70.876679h4.323585v.751928h-4.323585z" transform="matrix(-.707 -.707 .707 -.707 78.598 175.062)"/><path d="m71.4757 72.360611h2.228523v.751928h-2.228523z" transform="matrix(-.707 -.707 .707 -.707 72.486 175.498)"/><path d="m68.577454 75.692757h4.323585v.751928h-4.323585z" transform="matrix(-.707 -.707 .707 -.707 66.971 179.878)"/><path d="m66.659622 77.176697h2.228523v.751928h-2.228523z" transform="matrix(-.707 -.707 .707 -.707 60.859 180.314)"/><path d="m63.761372 80.508843h4.323585v.751928h-4.323585z" transform="matrix(-.707 -.707 .707 -.707 55.344 184.694)"/><path d="m61.843536 81.992775h2.228523v.751928h-2.228523z" transform="matrix(-.707 -.707 .707 -.707 49.232 185.13)"/><path d="m58.94529 85.324928h4.323585v.751928h-4.323585z" transform="matrix(-.707 -.707 .707 -.707 43.717 189.51)"/></g></svg>