<svg height="512" viewBox="0 0 128 128" width="512" xmlns="http://www.w3.org/2000/svg"><g id="number"><text fill="#24253a" font-family="MyriadPro-Regular, Myriad Pro" font-size="40" letter-spacing=".002em" transform="translate(43.419 -510.265)">10<tspan x="0" y="228">20</tspan><tspan x="0" y="456">30</tspan><tspan x="0" y="684">40</tspan><tspan x="0" y="912">50</tspan><tspan x="0" y="1140">60</tspan><tspan x="0" y="1368">70</tspan><tspan x="0" y="1596">80</tspan><tspan x="0" y="1824">90</tspan><tspan x="-10.299" y="2052">100</tspan><tspan x="-10.299" y="2280">110</tspan><tspan x="-10.299" y="2508">120</tspan><tspan x="-10.299" y="2736">130</tspan><tspan x="-10.299" y="2964">140</tspan><tspan x="-10.299" y="3192">150</tspan><tspan x="-10.299" y="3420">160</tspan><tspan x="-10.299" y="3648">170</tspan><tspan x="-10.299" y="3876">180</tspan><tspan x="-10.299" y="4104">190</tspan><tspan x="-10.299" y="4332">200</tspan><tspan x="-10.299" y="4560">210</tspan><tspan x="-10.299" y="4788">220</tspan><tspan x="-10.299" y="5016">230</tspan><tspan x="-10.299" y="5244">240</tspan><tspan x="-10.299" y="5472">250</tspan></text></g><g id="Circle_Grid" data-name="Circle Grid"><circle cx="64" cy="64" fill="#2cbfae" r="64"/></g><g id="icon"><path d="m104 43.589v56a1.969 1.969 0 0 1 -1.969 1.969h-76.062a1.969 1.969 0 0 1 -1.969-1.969v-56z" fill="#eeefee"/><path d="m104 34.235v12.565h-80v-12.565a1.969 1.969 0 0 1 1.969-1.969h76.062a1.969 1.969 0 0 1 1.969 1.969z" fill="#ef5261"/><rect fill="#575b6d" height="11.648" rx="2.749" width="5.497" x="89.559" y="26.442"/><rect fill="#575b6d" height="11.648" rx="2.749" width="5.497" x="70.687" y="26.442"/><rect fill="#575b6d" height="11.648" rx="2.749" width="5.497" x="51.815" y="26.442"/><rect fill="#575b6d" height="11.648" rx="2.749" width="5.497" x="32.944" y="26.442"/><g fill="#dbd8dd"><rect height="8.124" rx=".96" width="8.113" x="29.396" y="53.708"/><rect height="8.124" rx=".96" width="8.113" x="44.67" y="53.708"/><rect height="8.124" rx=".96" width="8.113" x="59.943" y="53.708"/><rect height="8.124" rx=".96" width="8.113" x="75.217" y="53.708"/><rect height="8.124" rx=".96" width="8.113" x="90.49" y="53.708"/><rect height="8.124" rx=".96" width="8.113" x="29.396" y="69.708"/><rect height="8.124" rx=".96" width="8.113" x="44.67" y="69.708"/><rect height="8.124" rx=".96" width="8.113" x="59.943" y="69.708"/><rect height="8.124" rx=".96" width="8.113" x="75.217" y="69.708"/><rect height="8.124" rx=".96" width="8.113" x="90.49" y="69.708"/><rect height="8.124" rx=".96" width="8.113" x="29.396" y="85.708"/><rect height="8.124" rx=".96" width="8.113" x="44.67" y="85.708"/><rect height="8.124" rx=".96" width="8.113" x="59.943" y="85.708"/><rect height="8.124" rx=".96" width="8.113" x="75.217" y="85.708"/><rect height="8.124" rx=".96" width="8.113" x="90.49" y="85.708"/></g></g></svg>